<svg width="176" height="50" viewBox="0 0 176 50" fill="none" xmlns="http://www.w3.org/2000/svg">
<text x="30" y="28" font-family="Playfair Display, serif" font-size="24" font-weight="bold" fill="currentColor">Lexocrates</text>
<path d="M15.39,3.31a2.6,2.6,0,0,0-2.31,1.21,2.52,2.52,0,0,0-.32,1.3,2.48,2.48,0,0,0,.32,1.3,2.58,2.58,0,0,0,2.31,1.21,2.52,2.52,0,0,0,2.32-1.21,2.52,2.52,0,0,0,.32-1.3,2.56,2.56,0,0,0-.32-1.3A2.55,2.55,0,0,0,15.39,3.31Zm-7,4.35H6.28V16.1H3.81V7.66H1.7V5.4H8.43Zm7.06,19.22a2.35,2.35,0,0,0-2.11,1.1,2.39,2.39,0,0,0-.29,1.18,2.35,2.35,0,0,0,.29,1.19,2.32,2.32,0,0,0,2.11,1.09,2.3,2.3,0,0,0,2.11-1.09,2.39,2.39,0,0,0,.29-1.19,2.3,2.3,0,0,0-.29-1.18A2.32,2.32,0,0,0,15.45,26.88ZM8.43,28.84v2.27h2.11v8.43H13V31.11h2.12V28.84Zm13.56-4.22a2.5,2.5,0,0,0-2.31,1.21,2.47,2.47,0,0,0-.32,1.3,2.43,2.43,0,0,0,.32,1.3,2.54,2.54,0,0,0,2.31,1.21,2.5,2.5,0,0,0,2.31-1.21,2.47,2.47,0,0,0,.32-1.3,2.5,2.5,0,0,0-.32-1.3A2.5,2.5,0,0,0,22,24.62Zm-7.05-7.51a2.52,2.52,0,0,0-2.32,1.21,2.52,2.52,0,0,0-.32,1.3,2.56,2.56,0,0,0,.32,1.3,2.55,2.55,0,0,0,2.32,1.21,2.6,2.6,0,0,0,2.31-1.21,2.52,2.52,0,0,0,.32-1.3,2.48,2.48,0,0,0-.32-1.3A2.58,2.58,0,0,0,14.95,17.11ZM1.7,18.39V20.3H8.43V18.39ZM1.7,28.84H3.81v8.43H6.28V28.84H8.43V26.57H1.7Zm20.89-6.85a2.55,2.55,0,0,0-2.32,1.21,2.5,2.5,0,0,0-.32,1.3,2.47,2.47,0,0,0,.32,1.3,2.5,2.5,0,0,0,2.32,1.21,2.54,2.54,0,0,0,2.31-1.21,2.43,2.43,0,0,0,.32-1.3,2.47,2.47,0,0,0-.32-1.3A2.54,2.54,0,0,0,22.59,21.99ZM8.43,24.62V22.35H1.7v2.27Zm7.06,12.65a2.58,2.58,0,0,0-2.31,1.21,2.56,2.56,0,0,0-.32,1.3,2.52,2.52,0,0,0,.32,1.3,2.55,2.55,0,0,0,2.31,1.21,2.52,2.52,0,0,0,2.32-1.21,2.52,2.52,0,0,0,.32-1.3,2.48,2.48,0,0,0-.32-1.3A2.58,2.58,0,0,0,15.49,37.27ZM1.7,39.54v2.27H8.43V39.54Zm20.89-12.66a2.54,2.54,0,0,0-2.32,1.21,2.43,2.43,0,0,0-.32,1.3,2.47,2.47,0,0,0,.32,1.3,2.5,2.5,0,0,0,2.32,1.21,2.5,2.5,0,0,0,2.31-1.21,2.47,2.47,0,0,0,.32-1.3,2.5,2.5,0,0,0-.32-1.3A2.5,2.5,0,0,0,22.59,26.88ZM8.43,43.78V46H1.7V43.78Zm7.06-19.67a2.55,2.55,0,0,0-2.31,1.21,2.5,2.5,0,0,0-.32,1.3,2.47,2.47,0,0,0,.32,1.3,2.5,2.5,0,0,0,2.31,1.21,2.54,2.54,0,0,0,2.32-1.21,2.43,2.43,0,0,0,.32-1.3,2.47,2.47,0,0,0-.32-1.3A2.54,2.54,0,0,0,15.49,24.11Zm7.1,19.67a2.6,2.6,0,0,0-2.31,1.21,2.52,2.52,0,0,0-.32,1.3,2.48,2.48,0,0,0,.32,1.3,2.58,2.58,0,0,0,2.31,1.21,2.52,2.52,0,0,0,2.32-1.21,2.52,2.52,0,0,0,.32-1.3,2.56,2.56,0,0,0-.32-1.3A2.55,2.55,0,0,0,22.59,43.78Zm-7.05-12.66a2.32,2.32,0,0,0-2.11,1.09,2.3,2.3,0,0,0-.29,1.19,2.39,2.39,0,0,0,.29,1.18,2.35,2.35,0,0,0,2.11,1.1,2.35,2.35,0,0,0,2.11-1.1,2.39,2.39,0,0,0,.29-1.18,2.35,2.35,0,0,0-.29-1.19A2.3,2.3,0,0,0,15.54,31.12Zm7-14a2.58,2.58,0,0,0-2.31,1.21,2.56,2.56,0,0,0-.32,1.3,2.52,2.52,0,0,0,.32,1.3,2.55,2.55,0,0,0,2.31,1.21,2.52,2.52,0,0,0,2.32-1.21,2.52,2.52,0,0,0,.32-1.3,2.48,2.48,0,0,0-.32-1.3A2.58,2.58,0,0,0,22.54,17.11ZM15.39,43.78a2.35,2.35,0,0,0-2.11,1.1,2.39,2.39,0,0,0-.29,1.18,2.35,2.35,0,0,0,.29,1.19,2.32,2.32,0,0,0,2.11,1.09,2.3,2.3,0,0,0,2.11-1.09,2.39,2.39,0,0,0,.29-1.19,2.3,2.3,0,0,0-.29-1.18A2.32,2.32,0,0,0,15.39,43.78Z" fill="currentColor"></path>
</svg>
