<svg width="400" height="466" viewBox="62.520999908447266 44.652366638183594 183.10501098632812 320.00665283203125" fill="none" xmlns="http://www.w3.org/2000/svg" version="1.1" xmlns:xlink="http://www.w3.org/1999/xlink"><path d="M104.72 233.74h21.156v91.469l17.957 39.45V233.796h21.155v129.291l18.013 -39.449V233.74h21.155v43.546l41.47 -90.963H62.521L104.72 278.857zm-12.009 -32.771h121.939v21.155H92.711zm62.738 -37.261c-1.459 -0.786 -2.862 -1.739 -4.209 -2.75 -7.519 -5.667 -13.411 -14.253 -15.937 -23.344 -3.255 -11.785 -1.179 -24.915 5.275 -35.185 0.281 -0.449 0.842 -0.505 0.673 0.505 -0.505 2.918 -2.581 10.662 1.347 15.151 3.311 3.816 9.259 2.245 11.055 -1.683 5.05 -11.279 -8.361 -25.477 -12.794 -35.241 -4.994 -11.055 -6.678 -24.859 2.245 -34.511 0.225 -0.225 1.851 -1.74 1.964 -1.796 0.449 -0.337 0.729 -0.281 0.393 0.393 -0.617 1.403 -1.403 2.918 -1.683 4.546 -3.591 19.135 14.085 25.14 23.288 37.878 5.05 7.07 8.361 15.881 7.071 24.691 -2.133 14.197 -15.937 22.951 -19.585 36.643 -1.347 4.994 -1.347 9.989 1.01 14.702z" fill="#212E44"/></svg>