<svg width="600" height="900"  xmlns="http://www.w3.org/2000/svg">

<path d="M183.26 409.045H220.283V569.115L251.708 638.152V409.143H288.73V635.402L320.253 566.366V409.045H357.275V485.25L429.847 326.064H109.412L183.26 488V409.143V409.045ZM162.245 351.695H375.639V388.717H162.245V351.695Z" fill="#212E44"/>
<path d="M272.036 286.489C269.483 285.114 267.028 283.445 264.671 281.677C251.512 271.759 241.201 256.734 236.782 240.825C231.086 220.202 234.719 197.223 246.013 179.252C246.504 178.466 247.486 178.368 247.191 180.136C246.307 185.242 242.674 198.794 249.548 206.65C255.342 213.328 265.751 210.578 268.894 203.704C277.732 183.966 254.262 159.12 246.504 142.033C237.764 122.687 234.818 98.5293 250.432 81.6385C250.825 81.2457 253.672 78.5942 253.869 78.496C254.654 77.9068 255.145 78.005 254.556 79.1834C253.476 81.6385 252.101 84.29 251.61 87.1378C245.325 120.625 276.259 131.133 292.364 153.425C301.202 165.798 306.996 181.216 304.738 196.634C301.006 221.479 276.848 236.798 270.465 260.76C268.108 269.5 268.108 278.24 272.233 286.489H272.036Z" fill="#212E44"/>
</svg>
