<svg width="700" height="816" viewBox=" -221 23 0 0 816 816" fill="none" xmlns="http://www.w3.org/2000/svg"><path d="M183.26 409.045h37.023v160.07l31.425 69.037V409.143h37.022v226.259l31.523-69.036V409.045h37.022v76.205l72.572-159.186H109.412L183.26 488zm-21.015-57.35h213.394v37.022H162.245zm109.791-65.206c-2.553-1.375-5.008-3.044-7.365-4.812-13.159-9.918-23.47-24.943-27.889-40.852-5.696-20.623-2.063-43.602 9.231-61.573.491-.786 1.473-.884 1.178.884-.884 5.106-4.517 18.658 2.357 26.514 5.794 6.678 16.203 3.928 19.346-2.946 8.838-19.738-14.632-44.584-22.39-61.671-8.74-19.346-11.686-43.504 3.928-60.394.393-.393 3.24-3.045 3.437-3.143.785-.59 1.276-.491.687.687-1.08 2.455-2.455 5.107-2.946 7.955-6.285 33.487 24.649 43.995 40.754 66.287 8.838 12.373 14.632 27.791 12.374 43.209-3.732 24.845-27.89 40.164-34.273 64.126-2.357 8.74-2.357 17.48 1.768 25.729z" fill="#212E44"/></svg>